<!--?xml version="1.0" standalone="no"?-->
              <svg id="sw-js-blob-svg" viewBox="0 0 100 100" xmlns="http://www.w3.org/2000/svg" version="1.1">
                    <defs> 
                        <linearGradient id="sw-gradient" x1="0" x2="1" y1="1" y2="0">
                            <stop id="stop1" stop-color="rgba(0, 0, 0, 1)" offset="0%"></stop>
                            <stop id="stop2" stop-color="rgba(0, 0, 0, 1)" offset="100%"></stop>
                        </linearGradient>
                    </defs>
                <path fill="url(#sw-gradient)" d="M27,-31.3C34.8,-25.7,40.8,-17,43,-7.2C45.2,2.6,43.6,13.4,37.9,20.6C32.3,27.9,22.5,31.5,13.8,32.2C5.1,32.8,-2.5,30.4,-10.5,27.9C-18.4,25.4,-26.6,22.8,-31.9,16.9C-37.1,11,-39.4,1.8,-38.8,-7.7C-38.1,-17.3,-34.6,-27.2,-27.7,-33C-20.7,-38.8,-10.4,-40.6,-0.4,-40.1C9.6,-39.7,19.2,-37,27,-31.3Z" width="100%" height="100%" transform="translate(50 50)" stroke-width="0" style="transition: all 0.3s ease 0s;" stroke="url(#sw-gradient)"></path>
              </svg>